<svg width="40" height="40" viewBox="0 0 40 40" fill="none" xmlns="http://www.w3.org/2000/svg">
<path d="M28.0298 14.1705L17.8866 22.4614L17.4094 22.8523C17.3045 22.9354 17.2361 23.056 17.2184 23.1886L17.1116 24.0705L16.8184 26.5477C16.8212 26.5779 16.8118 26.6078 16.7924 26.6311C16.773 26.6543 16.7452 26.6689 16.715 26.6716C16.6849 26.6743 16.6549 26.6649 16.6317 26.6455C16.6085 26.6261 16.5939 26.5983 16.5912 26.5682L15.7662 24.0909L14.9139 21.5568C14.8775 21.4433 14.8822 21.3205 14.927 21.2101C14.9719 21.0996 15.0541 21.0083 15.1594 20.9523L25.7139 14.9023L27.7003 13.7659C27.9889 13.5977 28.2844 13.9614 28.0298 14.1705Z" fill="#872693"/>
<path d="M20 0C16.0444 0 12.1776 1.17298 8.8886 3.37061C5.59962 5.56824 3.03617 8.69181 1.52242 12.3463C0.00866576 16.0009 -0.387401 20.0222 0.384303 23.9018C1.15601 27.7814 3.06082 31.3451 5.85787 34.1421C8.65492 36.9392 12.2186 38.844 16.0982 39.6157C19.9778 40.3874 23.9992 39.9913 27.6537 38.4776C31.3082 36.9638 34.4318 34.4004 36.6294 31.1114C38.827 27.8224 40 23.9556 40 20C40 14.6957 37.8929 9.60859 34.1421 5.85786C30.3914 2.10714 25.3043 0 20 0ZM32.475 11.5773L28.5705 28.8295C28.3864 29.6386 27.3591 30.0045 26.6386 29.5114L20.7432 25.5114L17.7409 28.35C17.6185 28.4649 17.4699 28.5481 17.308 28.5926C17.1461 28.637 16.9758 28.6413 16.8119 28.605C16.648 28.5687 16.4954 28.493 16.3674 28.3844C16.2394 28.2758 16.1398 28.1376 16.0773 27.9818L14.9932 24.8L13.9091 21.6182L8.09774 20.0273C7.93525 19.9918 7.78904 19.9036 7.68183 19.7765C7.57462 19.6493 7.51242 19.4903 7.5049 19.3242C7.49739 19.1581 7.54497 18.9941 7.64026 18.8578C7.73555 18.7215 7.87321 18.6205 8.03183 18.5705L30.4818 10.4818L30.8955 10.3341C31.7659 10.0295 32.6659 10.7341 32.475 11.5773Z" fill="#872693"/>
</svg>
