<svg width="40" height="40" viewBox="0 0 40 40" fill="none" xmlns="http://www.w3.org/2000/svg">
<path d="M20 0C8.95601 0 0 8.95601 0 20C0 31.044 8.95601 40 20 40C31.044 40 40 31.044 40 20C40 8.95601 31.044 0 20 0ZM20.4239 31.6445C20.4236 31.6445 20.4242 31.6445 20.4239 31.6445H20.419C18.4155 31.6437 16.4469 31.1414 14.6985 30.188L8.35297 31.8521L10.0513 25.6509C9.00359 23.8363 8.45242 21.7777 8.45336 19.6686C8.45609 13.0707 13.826 7.70297 20.4239 7.70297C23.6258 7.70414 26.6315 8.95047 28.8913 11.2122C31.1515 13.4741 32.3953 16.4807 32.3941 19.678C32.3913 26.2762 27.0209 31.6446 20.4238 31.6446L20.4239 31.6445Z" fill="#872693"/>
<path d="M20.4283 9.72412C14.9402 9.72412 10.4771 14.1854 10.4746 19.6694C10.4741 21.5487 11.0002 23.3789 11.9959 24.9624L12.2324 25.3387L11.2272 29.009L14.9928 28.0215L15.3562 28.237C16.8836 29.1433 18.6348 29.6228 20.42 29.6234H20.4239C25.9077 29.6234 30.3709 25.1617 30.3733 19.6774C30.3742 17.0196 29.3403 14.5208 27.462 12.641C25.5836 10.7611 23.0854 9.72498 20.4283 9.72412ZM26.2803 23.9456C26.0309 24.6438 24.8362 25.2814 24.2616 25.3675C23.7461 25.4443 23.0943 25.4764 22.3777 25.249C21.9431 25.1111 21.3862 24.9271 20.6724 24.6191C17.6722 23.324 15.7127 20.304 15.5631 20.1043C15.4136 19.9047 14.3418 18.4829 14.3418 17.0111C14.3418 15.5395 15.1145 14.816 15.3886 14.5169C15.6629 14.2175 15.987 14.1427 16.1863 14.1427C16.3855 14.1427 16.5852 14.1446 16.7595 14.1531C16.9431 14.1622 17.1897 14.0833 17.4323 14.6664C17.6816 15.2652 18.2798 16.7367 18.3546 16.8863C18.4294 17.0361 18.4791 17.2107 18.3796 17.4103C18.2798 17.6098 17.9484 18.0404 17.632 18.4329C17.4991 18.5974 17.3262 18.7439 17.5007 19.0433C17.6749 19.3423 18.2755 20.3216 19.1645 21.1145C20.3071 22.1332 21.2708 22.4487 21.5699 22.5986C21.8687 22.7481 22.0432 22.723 22.2178 22.5238C22.392 22.3242 22.9655 21.6507 23.1647 21.3513C23.3641 21.0519 23.5636 21.1019 23.8377 21.2018C24.112 21.3012 25.5823 22.0248 25.8814 22.1744C26.1805 22.3242 26.3798 22.399 26.4545 22.5238C26.5296 22.6486 26.5296 23.2471 26.2803 23.9456Z" fill="#872693"/>
</svg>
