<svg width="30" height="30" viewBox="0 0 30 30" fill="none" xmlns="http://www.w3.org/2000/svg">
<path fill-rule="evenodd" clip-rule="evenodd" d="M29.4512 26.3881C29.252 26.5867 29.0117 26.8406 28.757 27.1092C28.1214 27.7838 27.3274 28.6224 26.8297 28.9625C24.2111 30.7518 20.7079 29.8956 18.2299 28.8632C14.961 27.5012 11.4021 24.9906 8.20657 21.7947C5.00805 18.5985 2.49778 15.0385 1.13577 11.7715C0.104518 9.29297 -0.75347 5.78906 1.03616 3.16992C1.376 2.67188 2.21653 1.87904 2.89024 1.24219C3.15977 0.988244 3.41173 0.748303 3.61094 0.549728C3.96463 0.1978 4.44328 0.000236511 4.94222 0.000236511C5.44117 0.000236511 5.91982 0.1978 6.2735 0.549728L11.0915 5.36637C11.4433 5.72004 11.6407 6.19856 11.6407 6.69736C11.6407 7.19615 11.4433 7.67467 11.0915 8.02834L9.77905 9.3382C9.34072 9.77333 9.05461 10.3384 8.9633 10.9492C8.87198 11.56 8.98035 12.184 9.27227 12.7283C11.0775 16.1356 13.8645 18.9221 17.2721 20.7268C17.8162 21.0186 18.4401 21.1268 19.0508 21.0354C19.6614 20.9439 20.2262 20.6576 20.661 20.2192L21.9703 18.9093C22.324 18.5573 22.8026 18.3598 23.3016 18.3598C23.8005 18.3598 24.2792 18.5573 24.6329 18.9093L29.4512 23.7267C29.8029 24.0803 30.0004 24.5587 30.0004 25.0574C30.0004 25.5561 29.8029 26.0346 29.4512 26.3881Z" fill="url(#paint0_linear_68_1552)"/>
<defs>
<linearGradient id="paint0_linear_68_1552" x1="-0.000976158" y1="30" x2="31.6704" y2="27.8868" gradientUnits="userSpaceOnUse">
<stop stop-color="#3972CD"/>
<stop offset="0.583333" stop-color="#872693"/>
</linearGradient>
</defs>
</svg>
