<svg width="51" height="50" viewBox="0 0 51 50" fill="none" xmlns="http://www.w3.org/2000/svg">
<path d="M25.5 50C39.3071 50 50.5 38.8071 50.5 25C50.5 11.1929 39.3071 0 25.5 0C11.6929 0 0.5 11.1929 0.5 25C0.5 38.8071 11.6929 50 25.5 50Z" fill="url(#paint0_linear_53_1290)"/>
<path d="M34.25 27.8418C34.0742 27.8418 33.9277 27.6953 33.9277 27.5195V25.3418C33.9277 24.9121 33.5859 24.5703 33.1562 24.5703H27.0137C26.8379 24.5703 26.6914 24.4238 26.6914 24.248C26.6914 24.0723 26.8379 23.9258 27.0137 23.9258H33.1562C33.9473 23.9258 34.582 24.5703 34.582 25.3516V27.5293C34.582 27.6953 34.4355 27.8418 34.25 27.8418Z" fill="#FFFFFE"/>
<path d="M34.25 27.8418C34.1719 27.8418 34.0937 27.8125 34.0254 27.7539L32.4922 26.3086C32.3555 26.1816 32.3555 25.9863 32.4824 25.8496C32.6094 25.7129 32.8047 25.7129 32.9414 25.8398L34.25 27.0703L35.5586 25.8398C35.6953 25.7227 35.9004 25.7227 36.0176 25.8496C36.1348 25.9863 36.1348 26.1914 36.0078 26.3086L34.4648 27.7539C34.416 27.8125 34.3379 27.8418 34.25 27.8418ZM17.6973 27.8418C17.5215 27.8418 17.375 27.6953 17.375 27.5195V25.3418C17.375 24.5508 18.0195 23.916 18.8008 23.916H24.9531C25.1289 23.916 25.2754 24.0625 25.2754 24.2383C25.2754 24.4141 25.1289 24.5605 24.9531 24.5605H18.8008C18.3711 24.5605 18.0293 24.9023 18.0293 25.332V27.5098C18.0195 27.6953 17.873 27.8418 17.6973 27.8418Z" fill="#FFFFFE"/>
<path d="M17.6975 27.8418C17.6194 27.8418 17.5413 27.8125 17.4729 27.7539L15.93 26.3086C15.7932 26.1914 15.7932 25.9863 15.9202 25.8496C16.0374 25.7129 16.2425 25.7129 16.3792 25.8398L17.6878 27.0703L18.9964 25.8398C19.1331 25.7129 19.3382 25.7227 19.4554 25.8496C19.5823 25.9863 19.5725 26.1914 19.4456 26.3086L17.9124 27.7539C17.8636 27.8125 17.7757 27.8418 17.6975 27.8418ZM25.9788 23.5254C25.803 23.5254 25.6565 23.3789 25.6565 23.2031V21.3867C25.6565 21.2109 25.803 21.0645 25.9788 21.0645C26.1546 21.0645 26.3011 21.2109 26.3011 21.3867V23.2031C26.3011 23.3789 26.1643 23.5254 25.9788 23.5254Z" fill="#FFFFFE"/>
<path d="M25.9785 25.5957C25.2363 25.5957 24.6211 24.9902 24.6211 24.2383C24.6211 23.4863 25.2266 22.8809 25.9785 22.8809C26.7207 22.8809 27.3359 23.4863 27.3359 24.2383C27.3359 24.9902 26.7305 25.5957 25.9785 25.5957ZM25.9785 23.5254C25.5879 23.5254 25.2754 23.8379 25.2754 24.2285C25.2754 24.6191 25.5879 24.9316 25.9785 24.9316C26.3691 24.9316 26.6816 24.6191 26.6816 24.2285C26.6816 23.8477 26.3691 23.5254 25.9785 23.5254ZM33.0977 21.709H18.8496C17.1797 21.709 15.832 20.3516 15.832 18.6914C15.832 17.1289 17.0137 15.8496 18.5273 15.6836C18.5566 14.834 18.8887 14.043 19.4648 13.4473C20.0898 12.793 20.9688 12.4219 21.8672 12.4219C22.248 12.4219 22.6289 12.4902 22.9805 12.6172C23.498 11.4355 24.6602 10.6641 25.9785 10.6641C27.2871 10.6641 28.459 11.4355 28.9766 12.627C29.3281 12.5 29.6992 12.4316 30.0898 12.4316C30.998 12.4316 31.877 12.8027 32.4922 13.457C33.0684 14.0527 33.3809 14.834 33.4297 15.6934C34.9434 15.8496 36.125 17.1387 36.125 18.6914C36.1152 20.3613 34.7578 21.709 33.0977 21.709ZM21.8672 13.0762C21.1445 13.0762 20.4316 13.3789 19.9238 13.9062C19.4062 14.4434 19.1328 15.1855 19.1719 15.9863C19.1816 16.0742 19.1426 16.1621 19.0742 16.2305C19.0156 16.2988 18.9277 16.3281 18.8398 16.3281C17.5313 16.3281 16.4766 17.3926 16.4766 18.7012C16.4766 20.0098 17.541 21.0645 18.8398 21.0645H33.0977C34.4062 21.0645 35.4609 20 35.4609 18.7012C35.4609 17.3926 34.3965 16.3379 33.0977 16.3379C33.0098 16.3379 32.9219 16.3086 32.8633 16.2402C32.8047 16.1719 32.7656 16.084 32.7656 15.9961C32.7949 15.1953 32.5313 14.4531 32.0137 13.916C31.5156 13.3887 30.8027 13.0859 30.0703 13.0859C29.6602 13.0859 29.2695 13.1738 28.918 13.3496C28.8301 13.3887 28.7324 13.3984 28.6445 13.3594C28.5566 13.3203 28.4883 13.2422 28.4687 13.1641C28.127 12.0605 27.1113 11.3281 25.9687 11.3281C24.8262 11.3281 23.8105 12.0605 23.4687 13.1543C23.4395 13.252 23.3711 13.3203 23.293 13.3496C23.2051 13.3887 23.1074 13.3789 23.0195 13.3398C22.6777 13.1641 22.2773 13.0762 21.8672 13.0762ZM34.25 39.3359C33.5371 39.3359 32.8828 38.7402 32.4238 37.666C31.9941 36.6699 31.7598 35.3613 31.7598 33.9746C31.7598 32.5879 31.9941 31.2793 32.4238 30.2832C32.8828 29.1992 33.5371 28.6133 34.25 28.6133C34.9629 28.6133 35.6172 29.209 36.0762 30.2832C36.5059 31.2793 36.7402 32.5879 36.7402 33.9746C36.7402 35.3613 36.5059 36.6699 36.0762 37.666C35.6172 38.7402 34.9727 39.3359 34.25 39.3359ZM34.25 29.248C33.3809 29.248 32.4141 31.1914 32.4141 33.9648C32.4141 36.748 33.3809 38.6816 34.25 38.6816C35.1191 38.6816 36.0859 36.7383 36.0859 33.9648C36.0957 31.1914 35.1289 29.248 34.25 29.248Z" fill="#FFFFFE"/>
<path d="M34.25 39.3359C31.291 39.3359 28.8789 36.9336 28.8789 33.9648C28.8789 30.9961 31.2812 28.5938 34.25 28.5938C37.2188 28.5938 39.6211 30.9961 39.6211 33.9648C39.6309 36.9238 37.209 39.3359 34.25 39.3359ZM34.25 29.248C31.6523 29.248 29.5332 31.3574 29.5332 33.9648C29.5332 36.5625 31.6426 38.6816 34.25 38.6816C36.8574 38.6816 38.9668 36.5723 38.9668 33.9648C38.9668 31.3574 36.8574 29.248 34.25 29.248Z" fill="#FFFFFE"/>
<path d="M39.2988 34.2969H29.2109C29.0352 34.2969 28.8887 34.1504 28.8887 33.9746C28.8887 33.7988 29.0352 33.6523 29.2109 33.6523H39.2988C39.4746 33.6523 39.6211 33.7988 39.6211 33.9746C39.6309 34.1504 39.4844 34.2969 39.2988 34.2969ZM34.25 31.9824C32.6973 31.9824 31.2422 31.6797 30.1387 31.1328C29.9824 31.0547 29.9141 30.8594 29.9922 30.6934C30.0703 30.5371 30.2656 30.4687 30.4316 30.5469C31.4375 31.0547 32.7949 31.3379 34.2402 31.3379C35.6953 31.3379 37.043 31.0547 38.0488 30.5469C38.2051 30.4687 38.4004 30.5371 38.4883 30.6934C38.5664 30.8496 38.498 31.0449 38.3418 31.1328C37.2676 31.6797 35.8027 31.9824 34.25 31.9824ZM30.3047 37.4121C30.1875 37.4121 30.0703 37.3437 30.0117 37.2363C29.9336 37.0801 30.002 36.8848 30.1582 36.7969C31.252 36.2402 32.707 35.9473 34.2695 35.9473C35.8223 35.9473 37.2773 36.25 38.3809 36.7969C38.5371 36.875 38.6055 37.0703 38.5273 37.2363C38.4492 37.3926 38.2539 37.4609 38.0879 37.3828C37.082 36.875 35.7246 36.5918 34.2793 36.5918C32.834 36.5918 31.4766 36.875 30.4707 37.3828C30.4023 37.4023 30.3438 37.4121 30.3047 37.4121ZM23.2441 32.6172H12.1504C11.9453 32.6172 11.7402 32.5391 11.5937 32.3926C11.4473 32.2461 11.3691 32.0508 11.3691 31.8359V29.3848C11.3691 28.9551 11.7207 28.6035 12.1504 28.6035H23.2344C23.6641 28.6035 24.0156 28.9551 24.0156 29.3848V31.8359C24.0156 32.2559 23.6641 32.6172 23.2441 32.6172ZM12.1504 29.2578C12.0723 29.2578 12.0234 29.3164 12.0234 29.3848V31.8359C12.0234 31.8848 12.043 31.9141 12.0625 31.9336C12.0723 31.9434 12.1113 31.9727 12.1602 31.9727H23.2441C23.3223 31.9727 23.3711 31.9141 23.3711 31.8457V29.3945C23.3711 29.3164 23.3125 29.2676 23.2441 29.2676L12.1504 29.2578Z" fill="#FFFFFE"/>
<path d="M17.0723 30.9375C16.9844 30.9375 16.9062 30.9082 16.8477 30.8398C16.8379 30.8301 16.8184 30.8105 16.8086 30.791C16.7988 30.7715 16.7891 30.7617 16.7793 30.7422C16.7695 30.7227 16.7695 30.7031 16.7598 30.6836C16.75 30.6641 16.75 30.6445 16.75 30.6152C16.75 30.5273 16.7793 30.4492 16.8477 30.3809C16.8574 30.3711 16.877 30.3516 16.8965 30.3418L16.9551 30.3125C16.9746 30.3027 16.9941 30.3027 17.0137 30.293C17.0527 30.2832 17.1016 30.2832 17.1406 30.293C17.1602 30.3027 17.1797 30.3027 17.1992 30.3125L17.2578 30.3418C17.2773 30.3516 17.2871 30.3711 17.3066 30.3809C17.3652 30.4395 17.4043 30.5273 17.4043 30.6152C17.4043 30.6348 17.4043 30.6543 17.3945 30.6836C17.3848 30.7031 17.3848 30.7227 17.375 30.7422C17.3652 30.7617 17.3555 30.7812 17.3457 30.791C17.3359 30.8105 17.3164 30.8203 17.3066 30.8398C17.2969 30.8496 17.2773 30.8691 17.2578 30.8789L17.1992 30.9082C17.1797 30.918 17.1602 30.918 17.1406 30.9277C17.1113 30.9277 17.0918 30.9375 17.0723 30.9375ZM15.2754 30.9375C15.2559 30.9375 15.2363 30.9375 15.207 30.9277C15.1875 30.918 15.168 30.918 15.1484 30.9082C15.1289 30.8984 15.1094 30.8887 15.0996 30.8789C15.0801 30.8691 15.0703 30.8496 15.0508 30.8398C15.041 30.8301 15.0215 30.8105 15.0117 30.791C15.002 30.7715 14.9922 30.7617 14.9824 30.7422C14.9727 30.7227 14.9727 30.7031 14.9629 30.6836C14.9531 30.6641 14.9531 30.6445 14.9531 30.6152C14.9531 30.5273 14.9824 30.4395 15.0508 30.3809C15.0605 30.3711 15.0801 30.3516 15.0996 30.3418C15.1191 30.332 15.1289 30.3223 15.1484 30.3125C15.168 30.3027 15.1875 30.3027 15.207 30.293C15.2461 30.2832 15.2949 30.2832 15.334 30.293C15.3535 30.3027 15.373 30.3027 15.3926 30.3125C15.4121 30.3223 15.4316 30.332 15.4414 30.3418C15.4609 30.3516 15.4707 30.3711 15.4902 30.3809C15.5488 30.4395 15.5879 30.5273 15.5879 30.6152C15.5879 30.6348 15.5879 30.6543 15.5781 30.6836C15.5684 30.7031 15.5684 30.7227 15.5586 30.7422C15.5488 30.7617 15.5391 30.7812 15.5293 30.791C15.5195 30.8105 15.5 30.8203 15.4902 30.8398C15.4805 30.8594 15.4609 30.8691 15.4414 30.8789C15.4219 30.8887 15.4121 30.8984 15.3926 30.9082C15.373 30.918 15.3535 30.918 15.334 30.9277C15.3242 30.9277 15.3047 30.9375 15.2754 30.9375ZM13.4785 30.9375C13.3906 30.9375 13.3027 30.9082 13.2539 30.8398C13.2441 30.8301 13.2246 30.8105 13.2148 30.791C13.2051 30.7715 13.1953 30.7617 13.1855 30.7422C13.1758 30.7227 13.1758 30.7031 13.166 30.6836C13.1562 30.6641 13.1563 30.6445 13.1563 30.6152C13.1563 30.5273 13.1855 30.4492 13.2539 30.3809C13.2637 30.3711 13.2832 30.3516 13.3027 30.3418C13.3125 30.332 13.332 30.3223 13.3516 30.3125C13.3711 30.3027 13.3906 30.3027 13.4102 30.293C13.4492 30.2832 13.498 30.2832 13.5371 30.293C13.5566 30.3027 13.5762 30.3027 13.5957 30.3125C13.6152 30.3223 13.6348 30.332 13.6445 30.3418C13.6641 30.3516 13.6738 30.3711 13.6934 30.3809C13.752 30.4395 13.791 30.5273 13.791 30.6152C13.791 30.6348 13.791 30.6543 13.7812 30.6836C13.7715 30.7031 13.7715 30.7227 13.7617 30.7422C13.752 30.7617 13.7422 30.7812 13.7324 30.791C13.7227 30.8105 13.7031 30.8203 13.6934 30.8398C13.6836 30.8594 13.6641 30.8691 13.6445 30.8789C13.625 30.8887 13.6152 30.8984 13.5957 30.9082C13.5762 30.918 13.5566 30.918 13.5371 30.9277C13.5273 30.9277 13.5078 30.9375 13.4785 30.9375ZM21.916 30.9375H19.6016C19.4258 30.9375 19.2793 30.791 19.2793 30.6152C19.2793 30.4395 19.4258 30.293 19.6016 30.293H21.916C22.0918 30.293 22.2383 30.4395 22.2383 30.6152C22.2383 30.791 22.0918 30.9375 21.916 30.9375ZM12.1504 35.9766C11.9453 35.9766 11.7402 35.8984 11.5937 35.752C11.4473 35.6055 11.3691 35.4102 11.3691 35.1953V32.7441C11.3691 32.3145 11.7207 31.9629 12.1504 31.9629C12.3262 31.9629 12.4727 32.1094 12.4727 32.2852C12.4727 32.4609 12.3262 32.6074 12.1504 32.6074C12.0723 32.6074 12.0234 32.666 12.0234 32.7344V35.1855C12.0234 35.2344 12.043 35.2637 12.0625 35.2832C12.0723 35.293 12.1113 35.3223 12.1602 35.3223C12.3359 35.3223 12.4824 35.4687 12.4824 35.6445C12.4824 35.8301 12.3359 35.9766 12.1504 35.9766ZM23.2441 35.9766C23.0684 35.9766 22.9219 35.8301 22.9219 35.6543C22.9219 35.4785 23.0684 35.332 23.2441 35.332C23.3223 35.332 23.3711 35.2734 23.3711 35.2051V32.7539C23.3711 32.6758 23.3125 32.627 23.2441 32.627C23.0684 32.627 22.9219 32.4805 22.9219 32.3047C22.9219 32.1289 23.0684 31.9824 23.2441 31.9824C23.6738 31.9824 24.0254 32.334 24.0254 32.7637V35.2148C24.0156 35.6152 23.6641 35.9766 23.2441 35.9766ZM17.0723 34.2969C17.0527 34.2969 17.0332 34.2969 17.0039 34.2871C16.9844 34.2773 16.9648 34.2773 16.9453 34.2676L16.8867 34.2383C16.8672 34.2285 16.8574 34.209 16.8379 34.1992C16.8281 34.1895 16.8086 34.1699 16.7988 34.1504L16.7695 34.0918C16.7598 34.0723 16.7598 34.0527 16.75 34.0332C16.7402 34.0137 16.7402 33.9941 16.7402 33.9648C16.7402 33.877 16.7695 33.7891 16.8379 33.7305C16.8477 33.7207 16.8672 33.7012 16.8867 33.6914L16.9453 33.6621C16.9648 33.6523 16.9844 33.6523 17.0039 33.6426C17.043 33.6328 17.0918 33.6328 17.1309 33.6426C17.1504 33.6523 17.1699 33.6523 17.1895 33.6621L17.248 33.6914C17.2676 33.7012 17.2773 33.7207 17.2969 33.7305C17.3066 33.7402 17.3262 33.7598 17.3359 33.7793L17.3652 33.8379C17.3652 33.8379 17.375 33.877 17.3848 33.8965C17.3945 33.916 17.3945 33.9355 17.3945 33.9648C17.3945 33.9844 17.3945 34.0039 17.3848 34.0332C17.375 34.0527 17.375 34.0723 17.3652 34.0918L17.3359 34.1504C17.3262 34.1699 17.3066 34.1797 17.2969 34.1992C17.2871 34.209 17.2676 34.2285 17.248 34.2383L17.1895 34.2676C17.1699 34.2773 17.1504 34.2773 17.1309 34.2871C17.1113 34.2871 17.0918 34.2969 17.0723 34.2969ZM15.2754 34.2969C15.1875 34.2969 15.1094 34.2676 15.041 34.1992C15.0312 34.1895 15.0117 34.1699 15.002 34.1504L14.9727 34.0918C14.9629 34.0723 14.9629 34.0527 14.9531 34.0332C14.9434 34.0137 14.9434 33.9941 14.9434 33.9648C14.9434 33.877 14.9727 33.7988 15.041 33.7305C15.1191 33.6523 15.2266 33.6133 15.334 33.6426C15.3535 33.6523 15.373 33.6523 15.3926 33.6621L15.4512 33.6914C15.4707 33.7012 15.4805 33.7207 15.5 33.7305C15.5586 33.7891 15.5977 33.877 15.5977 33.9648C15.5977 33.9844 15.5977 34.0039 15.5879 34.0332C15.5781 34.0527 15.5781 34.0723 15.5684 34.0918L15.5391 34.1504C15.5293 34.1699 15.5098 34.1797 15.5 34.1992C15.4902 34.209 15.4707 34.2285 15.4512 34.2383C15.4316 34.248 15.4219 34.2578 15.4023 34.2676C15.3828 34.2773 15.3633 34.2773 15.3437 34.2871C15.3242 34.2871 15.3047 34.2969 15.2754 34.2969ZM13.4785 34.2969C13.459 34.2969 13.4395 34.2969 13.4102 34.2871C13.3906 34.2773 13.3711 34.2773 13.3516 34.2676C13.332 34.2578 13.3125 34.248 13.3027 34.2383C13.2832 34.2285 13.2734 34.209 13.2539 34.1992C13.2344 34.1895 13.2246 34.1699 13.2148 34.1504L13.1855 34.0918C13.1758 34.0723 13.1758 34.0527 13.166 34.0332C13.1562 34.0137 13.1563 33.9941 13.1563 33.9648C13.1563 33.877 13.1855 33.7891 13.2539 33.7305C13.2637 33.7207 13.2832 33.7012 13.3027 33.6914C13.3223 33.6816 13.3418 33.6719 13.3516 33.6621C13.3711 33.6523 13.3906 33.6523 13.4102 33.6426C13.4492 33.6328 13.498 33.6328 13.5371 33.6426C13.5566 33.6523 13.5762 33.6523 13.5957 33.6621C13.6152 33.6719 13.6348 33.6816 13.6445 33.6914C13.6641 33.7012 13.6738 33.7207 13.6934 33.7305C13.7031 33.7402 13.7227 33.7598 13.7324 33.7793L13.7617 33.8379C13.7617 33.8379 13.7715 33.877 13.7812 33.8965C13.791 33.916 13.791 33.9355 13.791 33.9648C13.791 33.9844 13.791 34.0039 13.7812 34.0332C13.7715 34.0527 13.7715 34.0723 13.7617 34.0918L13.7324 34.1504C13.7227 34.1699 13.7031 34.1797 13.6934 34.1992C13.6836 34.2188 13.6641 34.2285 13.6445 34.2383C13.625 34.248 13.6055 34.2578 13.5957 34.2676C13.5762 34.2773 13.5566 34.2773 13.5371 34.2871C13.5273 34.2871 13.5078 34.2969 13.4785 34.2969ZM21.916 34.2969H19.6016C19.4258 34.2969 19.2793 34.1504 19.2793 33.9746C19.2793 33.7988 19.4258 33.6523 19.6016 33.6523H21.916C22.0918 33.6523 22.2383 33.7988 22.2383 33.9746C22.2383 34.1504 22.0918 34.2969 21.916 34.2969Z" fill="#FFFFFE"/>
<path d="M23.2441 39.3359H12.1504C11.9453 39.3359 11.7402 39.2578 11.5937 39.1113C11.4473 38.9648 11.3691 38.7695 11.3691 38.5547V36.1035C11.3691 35.6738 11.7207 35.3223 12.1504 35.3223H23.2344C23.6641 35.3223 24.0156 35.6738 24.0156 36.1035V38.5547C24.0156 38.9844 23.6641 39.3359 23.2441 39.3359ZM12.1504 35.9766C12.0723 35.9766 12.0234 36.0352 12.0234 36.1035V38.5547C12.0234 38.6035 12.043 38.6328 12.0625 38.6523C12.0723 38.6621 12.1113 38.6914 12.1602 38.6914H23.2441C23.3223 38.6914 23.3711 38.6328 23.3711 38.5645V36.1133C23.3711 36.0352 23.3125 35.9863 23.2441 35.9863L12.1504 35.9766Z" fill="#FFFFFE"/>
<path d="M17.0723 37.6563C16.9844 37.6563 16.9062 37.627 16.8477 37.5586C16.8379 37.5488 16.8184 37.5293 16.8086 37.5098L16.7793 37.4512C16.7695 37.4316 16.7695 37.4121 16.7598 37.3926C16.75 37.373 16.75 37.3535 16.75 37.3242C16.75 37.2363 16.7793 37.1484 16.8477 37.0898C16.8574 37.0801 16.877 37.0605 16.8965 37.0508L16.9551 37.0215C16.9746 37.0117 16.9941 37.0117 17.0137 37.002C17.1211 36.9824 17.2383 37.0117 17.3066 37.0898C17.3164 37.0996 17.3359 37.1191 17.3457 37.1387L17.375 37.1973C17.3848 37.2168 17.3848 37.2363 17.3945 37.2559C17.4043 37.2754 17.4043 37.2949 17.4043 37.3242C17.4043 37.3438 17.4043 37.3633 17.3945 37.3926C17.3848 37.4121 17.3848 37.4316 17.375 37.4512L17.3457 37.5098C17.3359 37.5293 17.3164 37.5391 17.3066 37.5586C17.2383 37.6172 17.1602 37.6563 17.0723 37.6563ZM15.2754 37.6563C15.1875 37.6563 15.1094 37.627 15.041 37.5586C15.0312 37.5488 15.0117 37.5293 15.002 37.5098L14.9727 37.4512C14.9629 37.4316 14.9629 37.4121 14.9531 37.3926C14.9434 37.373 14.9434 37.3535 14.9434 37.3242C14.9434 37.3047 14.9434 37.2852 14.9531 37.2559C14.9629 37.2363 14.9629 37.2168 14.9727 37.1973L15.002 37.1387C15.0117 37.1191 15.0312 37.1094 15.041 37.0898C15.0996 37.0312 15.1875 36.9922 15.2754 36.9922C15.3633 36.9922 15.4414 37.0215 15.5098 37.0898C15.5684 37.1484 15.6074 37.2363 15.6074 37.3242C15.6074 37.3438 15.6074 37.3633 15.5977 37.3926C15.5879 37.4121 15.5879 37.4316 15.5781 37.4512L15.5488 37.5098C15.5391 37.5293 15.5195 37.5391 15.5098 37.5586C15.4512 37.6172 15.3633 37.6563 15.2754 37.6563ZM13.4785 37.6563C13.3906 37.6563 13.3125 37.627 13.2539 37.5586C13.2441 37.5488 13.2246 37.5293 13.2148 37.5098L13.1855 37.4512C13.1758 37.4316 13.1758 37.4121 13.166 37.3926C13.1562 37.373 13.1563 37.3535 13.1563 37.3242C13.1563 37.2363 13.1855 37.1484 13.2539 37.0898C13.3125 37.0312 13.4004 36.9922 13.4883 36.9922C13.5762 36.9922 13.6543 37.0215 13.7129 37.0898C13.7227 37.0996 13.7422 37.1191 13.752 37.1387L13.7812 37.1973C13.791 37.2168 13.791 37.2363 13.8008 37.2559C13.8105 37.2754 13.8105 37.2949 13.8105 37.3242C13.8105 37.3438 13.8105 37.3633 13.8008 37.3926C13.791 37.4121 13.791 37.4316 13.7812 37.4512L13.752 37.5098C13.7422 37.5293 13.7227 37.5391 13.7129 37.5586C13.6543 37.6172 13.5664 37.6563 13.4785 37.6563ZM21.916 37.6563H19.6016C19.4258 37.6563 19.2793 37.5098 19.2793 37.334C19.2793 37.1582 19.4258 37.0117 19.6016 37.0117H21.916C22.0918 37.0117 22.2383 37.1582 22.2383 37.334C22.2383 37.5098 22.0918 37.6563 21.916 37.6563Z" fill="#FFFFFE"/>
<defs>
<linearGradient id="paint0_linear_53_1290" x1="0.500001" y1="50" x2="53.2832" y2="46.4784" gradientUnits="userSpaceOnUse">
<stop stop-color="#3972CD"/>
<stop offset="1" stop-color="#872693"/>
</linearGradient>
</defs>
</svg>
