<svg width="27" height="21" viewBox="0 0 27 21" fill="none" xmlns="http://www.w3.org/2000/svg">
<path fill-rule="evenodd" clip-rule="evenodd" d="M1.83333 0.291666C1.44656 0.291666 1.07563 0.445312 0.802136 0.718802C0.528645 0.992293 0.375 1.36323 0.375 1.75C0.375 2.13677 0.528645 2.50771 0.802136 2.7812C1.07563 3.05469 1.44656 3.20833 1.83333 3.20833H25.1667C25.5534 3.20833 25.9244 3.05469 26.1979 2.7812C26.4714 2.50771 26.625 2.13677 26.625 1.75C26.625 1.36323 26.4714 0.992293 26.1979 0.718802C25.9244 0.445312 25.5534 0.291666 25.1667 0.291666H1.83333ZM0.375 10.5C0.375 10.1132 0.528645 9.74229 0.802136 9.4688C1.07563 9.19531 1.44656 9.04167 1.83333 9.04167H25.1667C25.5534 9.04167 25.9244 9.19531 26.1979 9.4688C26.4714 9.74229 26.625 10.1132 26.625 10.5C26.625 10.8868 26.4714 11.2577 26.1979 11.5312C25.9244 11.8047 25.5534 11.9583 25.1667 11.9583H1.83333C1.44656 11.9583 1.07563 11.8047 0.802136 11.5312C0.528645 11.2577 0.375 10.8868 0.375 10.5ZM0.375 19.25C0.375 18.8632 0.528645 18.4923 0.802136 18.2188C1.07563 17.9453 1.44656 17.7917 1.83333 17.7917H25.1667C25.5534 17.7917 25.9244 17.9453 26.1979 18.2188C26.4714 18.4923 26.625 18.8632 26.625 19.25C26.625 19.6368 26.4714 20.0077 26.1979 20.2812C25.9244 20.5547 25.5534 20.7083 25.1667 20.7083H1.83333C1.44656 20.7083 1.07563 20.5547 0.802136 20.2812C0.528645 20.0077 0.375 19.6368 0.375 19.25Z" fill="url(#paint0_linear_123_40231)"/>
<defs>
<linearGradient id="paint0_linear_123_40231" x1="0.375" y1="20.7083" x2="28.0062" y2="18.3381" gradientUnits="userSpaceOnUse">
<stop stop-color="#3972CD"/>
<stop offset="1" stop-color="#872693"/>
</linearGradient>
</defs>
</svg>
